<svg xmlns="http://www.w3.org/2000/svg" version="1.1" xmlns:xlink="http://www.w3.org/1999/xlink" xmlns:svgjs="http://svgjs.dev/svgjs" width="100%" height="100%" viewBox="0 0 1000 600"><rect width="1000" height="600" x="0" y="0" fill="#8bd8bd"/><g><rect width="333.3333333333333" height="333.3333333333333" rx="13.333333333333334" ry="13.333333333333334" y="297.7877227228744" fill="#243665" transform="matrix(0.45361266562601243,0,0,0.45361266562601243,0,89.31759723041156)" x="275.56542968749994"/><path d="M350.3204708522718 399.9102966519054L350.3204708522718 399.9102966519054Q378.44051945961183 399.9102966519054 399.35233025492954 416.25424978612466L399.35233025492954 416.25424978612466Q409.62340904202375 424.4394282539889 415.8018985951858 438.22221264181195Q421.98038814834786 452.004997029635 421.98038814834786 469.6691402393162Q421.98038814834786 487.3596872505067 415.8018985951858 501.1424716383297Q409.62340904202375 514.9252560261527 399.35233025492954 523.110434494017L399.35233025492954 523.110434494017Q378.44051945961183 539.4543876282362 350.3204708522718 539.4543876282362L350.3204708522718 539.4543876282362Q327.3227597377242 539.4543876282362 319.13758126985994 533.5663398916759Q310.9524028019957 527.6518883536062 310.9524028019957 515.6909662699206L310.9524028019957 515.6909662699206L311.1636332140696 417.2047866404573Q311.1636332140696 410.18137543899957 308.31202265107174 406.5640546322338L308.31202265107174 406.5640546322338Q327.50758634828884 399.9102966519054 350.3204708522718 399.9102966519054ZM350.3204708522718 527.6518883536062L350.3204708522718 527.6518883536062Q373.3181819668194 527.6518883536062 389.10765526934466 512.7337405008859Q404.8707247703606 497.81559264816553 404.8707247703606 469.7747554453532Q404.8707247703606 441.7339182425408 389.10765526934466 426.8949817943482Q373.3181819668194 412.0824491476649 350.3204708522718 412.0824491476649L350.3204708522718 412.0824491476649Q338.3331449670771 412.0824491476649 327.50758634828884 415.11888632122736L327.50758634828884 415.11888632122736L326.9267027150856 515.6909662699206Q326.9267027150856 520.2588239310192 328.0620661799829 522.5295508608137L328.0620661799829 522.5295508608137Q330.7288501324161 527.6518883536062 350.3204708522718 527.6518883536062ZM469.1375776438496 405.79834438846586L465.3354302265191 481.656466124511Q465.1506036159544 484.87772990863823 465.1506036159544 490.0264712029399Q465.1506036159544 495.1488086957324 466.65562030198106 499.5318397462661L466.65562030198106 499.5318397462661Q464.75454659331587 502.383450309264 461.5332828091886 502.383450309264L461.5332828091886 502.383450309264Q454.298641195657 502.383450309264 453.532930951889 489.8416445923752L453.532930951889 489.8416445923752L450.89255080096507 405.79834438846586Q450.89255080096507 404.66298092356857 450.89255080096507 403.7124440692359L450.89255080096507 403.7124440692359Q450.89255080096507 397.24351269947226 453.1632777307597 393.36215387761405Q455.4340046605543 389.4543912542466 459.81703571108807 389.4543912542466Q464.2000667616218 389.4543912542466 466.76123550801805 393.36215387761405Q469.32240425441427 397.24351269947226 469.32240425441427 403.13156043603266L469.32240425441427 403.13156043603266Q469.32240425441427 404.47815431300387 469.1375776438496 405.79834438846586L469.1375776438496 405.79834438846586ZM462.2989930529565 517.0111563453827Q466.84044691254576 517.0111563453827 469.5072308649789 519.6779402978159Q472.1740148174121 522.3447242502491 472.1740148174121 526.9125819113475Q472.1740148174121 531.4540357709367 468.18704078951697 535.467413600341Q464.2000667616218 539.4543876282362 459.52659389448644 539.4543876282362Q454.87952482886027 539.4543876282362 452.31835608246405 536.7876036758031Q449.73078353455855 534.1208197233699 449.73078353455855 529.4737506577437Q449.73078353455855 524.8002777906083 453.744161363963 520.9189189687502Q457.7311353918581 517.0111563453827 462.2989930529565 517.0111563453827ZM556.1116998152845 458.843581620528Q551.6494573602231 463.2266126710618 548.4017897745866 468.3489501638542Q545.1805259904595 473.4712876566467 545.1805259904595 478.6200289509484Q545.1805259904595 483.7423664437409 547.7416947368556 486.88441882334035Q550.3028634832519 490.0264712029399 555.0555477549151 490.3961244240692L555.0555477549151 490.3961244240692Q554.8707211443502 494.19827184139973 552.0191105813524 496.68022918326824Q549.1675000183545 499.1357827236275 543.9395473195252 499.1357827236275Q538.7115946206957 499.1357827236275 534.0645255550696 494.48871365800136Q529.3910526879342 489.8416445923752 529.3910526879342 482.7918295894083Q529.3910526879342 475.76841838795053 532.5331050675336 469.4843136287516Q535.6751574471332 463.2266126710618 540.1373999021946 458.3683131933617Q544.5996423572562 453.51001371566167 548.9826734077899 448.5725028334339L548.9826734077899 448.5725028334339Q559.808232026578 436.6115807497484 559.808232026578 423.3040647890916L559.808232026578 423.3040647890916Q559.808232026578 414.9340597106627 554.2106261066194 408.570743546936Q548.5866163851513 402.18102358170006 539.6621314750284 402.18102358170006Q530.7376465649054 402.18102358170006 525.2984634540021 406.3792280216691Q519.8856841446079 410.55102866012896 519.8856841446079 417.2047866404573L519.8856841446079 417.2047866404573Q519.8856841446079 430.512302601114 532.0578366403674 435.2649868727771L532.0578366403674 435.2649868727771Q531.8730100298028 437.35088719200706 528.6253424441663 439.0671342901076Q525.404078660039 440.7833813882082 521.7867578532732 440.7833813882082L521.7867578532732 440.7833813882082Q513.9976364080476 440.7833813882082 509.24495213638437 435.4498134833418Q504.4922678647213 430.1426493799847 504.4922678647213 421.19176066835246L504.4922678647213 421.19176066835246Q504.4922678647213 409.41566519523167 515.4234416895465 401.3361019334044Q526.3546155143715 393.2565386715771 541.5632051836935 393.2565386715771Q556.7717948530155 393.2565386715771 566.4619900069065 401.626543750006Q576.1521851607974 409.9965488284349 576.1521851607974 422.1422975226851L576.1521851607974 422.1422975226851Q576.1521851607974 430.6971292116787 572.9309213766701 437.8261556191734Q569.709657592543 444.955182026668 565.1417999314444 449.70786629833117Q560.5739422703462 454.46055056999427 556.1116998152845 458.843581620528ZM542.8041838546278 516.6415031242533Q547.6360795308187 516.6415031242533 550.4084786892888 519.3082870766865Q553.1544740462498 521.9486672276105 553.1544740462498 526.6221400947459Q553.1544740462498 531.269209160372 548.9826734077899 535.3617983943041Q544.7844689678209 539.4543876282362 539.8469580855931 539.4543876282362Q534.9094472033653 539.4543876282362 532.1634518464043 536.6819884697661Q529.3910526879342 533.9359931128051 529.3910526879342 529.2889240471791Q529.3910526879342 524.6154511800437 533.668468532431 520.6284771521484Q537.9458843769278 516.6415031242533 542.8041838546278 516.6415031242533Z " fill="#8bd8bd" transform="matrix(0.45361266562601243,0,0,0.45361266562601243,0,89.31759723041156)"/><path d="M737.3881973305461 389.45439000783034L737.3881973305461 389.45439000783034Q767.6152537319796 389.45439000783034 790.0939660981159 407.0229795970203L790.0939660981159 407.0229795970203Q801.1346467930997 415.82146549790707 807.77608453764 430.636980466497Q814.4175222821801 445.45249543508686 814.4175222821801 464.4401956534521Q814.4175222821801 483.4562780844009 807.77608453764 498.2717930529908Q801.1346467930997 513.0873080215807 790.0939660981159 521.8857939224674L790.0939660981159 521.8857939224674Q767.6152537319796 539.4543835116574 737.3881973305461 539.4543835116574L737.3881973305461 539.4543835116574Q712.6672901703126 539.4543835116574 703.8688042694259 533.1251501055357Q695.0703183685392 526.7675344868304 695.0703183685392 513.9103921865023L695.0703183685392 513.9103921865023L695.2973760692072 408.0447392500265Q695.2973760692072 400.495070702814 692.2320971101886 396.60670757887374L692.2320971101886 396.60670757887374Q712.8659656583972 389.45439000783034 737.3881973305461 389.45439000783034ZM737.3881973305461 526.7675344868304L737.3881973305461 526.7675344868304Q762.1091044907795 526.7675344868304 779.0816676157157 510.7315843771497Q796.0258485280687 494.6956342674691 796.0258485280687 464.55372450378616Q796.0258485280687 434.4118147401032 779.0816676157157 418.461011268173Q762.1091044907795 402.5385900088264 737.3881973305461 402.5385900088264L737.3881973305461 402.5385900088264Q724.5026728176346 402.5385900088264 712.8659656583972 405.8025444559296L712.8659656583972 405.8025444559296L712.2415569815602 513.9103921865023Q712.2415569815602 518.8205149634489 713.4619921226508 521.2613852456303L713.4619921226508 521.2613852456303Q716.328595593585 526.7675344868304 737.3881973305461 526.7675344868304ZM903.4241409440539 454.33612797372416Q894.114775216664 443.60765161715904 880.0088155626617 443.60765161715904Q865.9312381212429 443.60765161715904 858.1545118733624 453.3143683207179Q850.3777856254818 463.02108502427683 850.3777856254818 481.8101097545576L850.3777856254818 481.8101097545576Q850.3777856254818 506.1336659386218 859.8858268409562 517.0608177832714Q869.3938680564305 528.0163518405046 883.4998277104329 528.0163518405046Q897.6057873644351 528.0163518405046 905.1554559116477 518.1961062866117Q912.70512445886 508.37586073271876 912.70512445886 489.5868360024381L912.70512445886 489.5868360024381Q912.70512445886 465.0646043302892 903.4241409440539 454.33612797372416ZM847.2273600287127 446.04852189934047Q861.4184663204654 431.97094445792175 881.6549838925049 431.97094445792175Q901.8915014645444 431.97094445792175 916.0826077562973 446.1620507496745Q930.3020962606337 460.3531570414273 930.3020962606337 485.81200172883183Q930.3020962606337 511.24246420365284 916.0826077562973 525.3484238576551Q901.8915014645444 539.4543835116574 881.6549838925049 539.4543835116574Q861.4184663204654 539.4543835116574 847.2273600287127 525.3484238576551Q833.0078715243764 511.24246420365284 833.0078715243764 485.6984728784978Q833.0078715243764 460.15448155334275 847.2273600287127 446.04852189934047ZM1043.4903600436537 467.1081236363016L1043.4903600436537 467.1081236363016L1043.4903600436537 524.9510728814861Q1043.4903600436537 530.6558976107707 1048.8262160093532 532.8980924048676L1048.8262160093532 532.8980924048676Q1044.5121196966602 539.4543835116574 1037.9842108024536 539.4543835116574L1037.9842108024536 539.4543835116574Q1026.7448546193855 539.4543835116574 1026.7448546193855 525.1497483695706L1026.7448546193855 525.1497483695706L1026.7448546193855 468.3285587773924Q1026.7448546193855 446.87160606426215 1007.9558298891048 446.87160606426215L1007.9558298891048 446.87160606426215Q997.738233359043 446.87160606426215 988.5423964819871 455.04568328831175Q979.3465596049313 463.2197605123614 975.85554745716 476.9283691901946L975.85554745716 476.9283691901946L975.85554745716 524.9510728814861Q975.85554745716 530.8545730988552 980.9643457221911 532.8980924048676L980.9643457221911 532.8980924048676Q976.6786316220818 539.4543835116574 970.3493982159599 539.4543835116574L970.3493982159599 539.4543835116574Q958.9113665448073 539.4543835116574 958.9113665448073 525.1497483695706L958.9113665448073 525.1497483695706L958.9113665448073 446.67293057617763Q958.9113665448073 440.74104814622495 953.8025682797762 438.498853352128L953.8025682797762 438.498853352128Q957.662549191133 431.97094445792175 964.4175157860074 431.97094445792175L964.4175157860074 431.97094445792175Q975.85554745716 431.97094445792175 975.85554745716 446.27557960000854L975.85554745716 446.27557960000854L975.85554745716 456.89052710623963Q981.1630212102756 445.84984641125595 990.9832667641684 438.8962043282971Q1000.8035123180615 431.97094445792175 1013.972858956808 431.97094445792175Q1027.1422055955545 431.97094445792175 1035.316282819604 440.854576996559Q1043.4903600436537 449.73820953519623 1043.4903600436537 467.1081236363016ZM1164.8810832633071 446.27557960000854L1164.8810832633071 446.27557960000854L1164.8810832633071 524.9510728814861Q1164.8810832633071 530.6558976107707 1170.1885570164227 532.8980924048676L1170.1885570164227 532.8980924048676Q1165.9028429163136 539.4543835116574 1159.374934022107 539.4543835116574L1159.374934022107 539.4543835116574Q1148.135577839039 539.4543835116574 1148.135577839039 525.1497483695706L1148.135577839039 525.1497483695706L1148.135577839039 519.842274616455Q1136.6975461678862 539.4543835116574 1114.8148602660035 539.4543835116574L1114.8148602660035 539.4543835116574Q1080.2737075518771 539.4543835116574 1080.2737075518771 504.28882212069396L1080.2737075518771 504.28882212069396L1080.2737075518771 446.67293057617763Q1080.2737075518771 440.74104814622495 1075.164909286846 438.498853352128L1075.164909286846 438.498853352128Q1079.0532724107866 431.97094445792175 1085.8082390056607 431.97094445792175L1085.8082390056607 431.97094445792175Q1097.2462706768133 431.97094445792175 1097.2462706768133 446.27557960000854L1097.2462706768133 446.27557960000854L1097.2462706768133 503.26706246768777Q1097.2462706768133 524.9510728814861 1118.504547901859 524.9510728814861L1118.504547901859 524.9510728814861Q1128.2964112431687 524.9510728814861 1136.186666341383 519.0191904515334Q1144.0485392270143 513.0873080215807 1148.135577839039 502.47236051534964L1148.135577839039 502.47236051534964L1148.135577839039 446.67293057617763Q1148.135577839039 440.74104814622495 1142.8281040859233 438.498853352128L1142.8281040859233 438.498853352128Q1147.511169162202 431.97094445792175 1153.641727080239 431.97094445792175L1153.641727080239 431.97094445792175Q1164.8810832633071 431.97094445792175 1164.8810832633071 446.27557960000854ZM1221.7022728554857 446.87160606426215L1218.8356693845512 446.87160606426215L1218.8356693845512 511.66819739240543Q1218.8356693845512 519.2178659396179 1221.787419493236 522.4818203867211Q1224.7675518145043 525.7457748338243 1231.494136196795 525.7457748338243L1231.494136196795 525.7457748338243Q1244.180985221622 525.7457748338243 1255.4203414046901 514.9321518395086L1255.4203414046901 514.9321518395086Q1258.8829713398777 516.7769956574364 1258.8829713398777 520.8640342694613L1258.8829713398777 520.8640342694613Q1258.8829713398777 527.7892941398366 1249.8858099509066 533.6360299320388Q1240.917030774519 539.4543835116574 1227.8328307735228 539.4543835116574L1227.8328307735228 539.4543835116574Q1201.6644307715305 539.4543835116574 1201.6644307715305 512.2642238566591L1201.6644307715305 512.2642238566591L1201.6644307715305 446.87160606426215Q1185.1176008353468 446.27557960000854 1185.1176008353468 438.8962043282971L1185.1176008353468 438.8962043282971Q1185.1176008353468 435.03622341694035 1187.5584711175284 432.9927041109279L1187.5584711175284 432.9927041109279Q1194.710788688572 434.01446376393415 1198.599151812512 434.01446376393415L1198.599151812512 434.01446376393415L1201.6644307715305 434.01446376393415L1201.6644307715305 417.4392516151669Q1201.6644307715305 411.7344268858822 1196.5556325064995 409.2651743911172L1196.5556325064995 409.2651743911172Q1200.6426711185245 402.93594098499545 1207.198962225314 402.93594098499545L1207.198962225314 402.93594098499545Q1218.8356693845512 402.93594098499545 1218.8356693845512 417.2405761270823L1218.8356693845512 417.2405761270823L1218.8356693845512 434.01446376393415L1253.178146610593 434.01446376393415Q1253.9728485629312 435.4335743931094 1253.9728485629312 437.4770936991218L1253.9728485629312 437.4770936991218Q1253.9728485629312 446.87160606426215 1221.7022728554857 446.87160606426215L1221.7022728554857 446.87160606426215ZM1400.396683281237 454.33612797372416Q1391.1156997664307 443.60765161715904 1377.009740112428 443.60765161715904Q1362.903780458426 443.60765161715904 1355.1270542105453 453.3143683207179Q1347.3787101752482 463.02108502427683 1347.3787101752482 481.8101097545576L1347.3787101752482 481.8101097545576Q1347.3787101752482 506.1336659386218 1356.8867513907226 517.0608177832714Q1366.3664103936135 528.0163518405046 1380.4723700476156 528.0163518405046Q1394.5783297016183 528.0163518405046 1402.1279982488309 518.1961062866117Q1409.7060490086265 508.37586073271876 1409.7060490086265 489.5868360024381L1409.7060490086265 489.5868360024381Q1409.7060490086265 465.0646043302892 1400.396683281237 454.33612797372416ZM1344.199902365896 446.04852189934047Q1358.4193908702323 431.97094445792175 1378.627526229688 431.97094445792175Q1398.8640438017273 431.97094445792175 1413.0835323060637 446.1620507496745Q1427.2746385978166 460.3531570414273 1427.2746385978166 485.81200172883183Q1427.2746385978166 511.24246420365284 1413.0835323060637 525.3484238576551Q1398.8640438017273 539.4543835116574 1378.627526229688 539.4543835116574Q1358.4193908702323 539.4543835116574 1344.199902365896 525.3484238576551Q1330.008796074143 511.24246420365284 1330.008796074143 485.6984728784978Q1330.008796074143 460.15448155334275 1344.199902365896 446.04852189934047ZM1472.8564720069267 446.27557960000854L1472.8564720069267 446.27557960000854L1472.8564720069267 453.82524814722103Q1481.4279002071453 431.97094445792175 1501.238684590432 431.97094445792175L1501.238684590432 431.97094445792175Q1510.8602546562406 431.97094445792175 1516.1677284093562 436.8526850222847Q1521.4752021624718 441.76280779923115 1521.4752021624718 448.2055700556869Q1521.4752021624718 454.64833231214266 1518.2112477153682 458.02581560957987Q1514.9472932682652 461.3749166944335 1511.4562811204942 461.3749166944335Q1507.9936511853066 461.3749166944335 1505.1270477143726 460.58021474209534L1505.1270477143726 460.58021474209534Q1505.552780903125 458.53669543608294 1505.552780903125 455.2443587763963L1505.552780903125 455.2443587763963Q1505.552780903125 445.02676224633433 1495.335184373063 445.02676224633433L1495.335184373063 445.02676224633433Q1488.5802177781889 445.02676224633433 1482.0523088839823 451.78172884120863Q1475.4960177771927 458.53669543608294 1472.8564720069267 472.4155973894172L1472.8564720069267 472.4155973894172L1472.8564720069267 524.9510728814861Q1472.8564720069267 530.8545730988552 1477.9652702719577 532.8980924048676L1477.9652702719577 532.8980924048676Q1473.6511739592647 539.4543835116574 1467.3219405531431 539.4543835116574L1467.3219405531431 539.4543835116574Q1455.8839088819905 539.4543835116574 1455.8839088819905 525.1497483695706L1455.8839088819905 525.1497483695706L1455.8839088819905 446.67293057617763Q1455.8839088819905 440.74104814622495 1450.7751106169594 438.498853352128L1450.7751106169594 438.498853352128Q1454.6634737408995 431.97094445792175 1461.3900581231906 431.97094445792175L1461.3900581231906 431.97094445792175Q1472.8564720069267 431.97094445792175 1472.8564720069267 446.27557960000854ZM1600.7751041207862 525.1497483695706L1600.7751041207862 525.1497483695706L1600.7751041207862 403.7590251499172Q1600.7751041207862 397.8271427199645 1595.6663058557556 395.7836234139521L1595.6663058557556 395.7836234139521Q1600.1506954439492 389.45439000783034 1606.7921331884895 389.45439000783034Q1613.4335709330298 389.45439000783034 1617.8328138834731 392.71834445493346Q1622.2320568339164 395.98229890203663 1626.7164464221105 403.13461647308003L1626.7164464221105 403.13461647308003L1696.8205115033693 513.9103921865023L1696.8205115033693 403.7590251499172Q1696.8205115033693 398.02581820804903 1691.7117132383382 395.7836234139521L1691.7117132383382 395.7836234139521Q1695.7987518503628 389.45439000783034 1702.525336232654 389.45439000783034L1702.525336232654 389.45439000783034Q1713.99175011639 389.45439000783034 1713.99175011639 403.5603496618326L1713.99175011639 403.5603496618326L1713.99175011639 524.9510728814861Q1713.99175011639 530.6558976107707 1718.6748151926686 533.3238255936202L1718.6748151926686 533.3238255936202Q1714.786452068728 539.4543835116574 1708.258543174522 539.4543835116574Q1701.7306342803158 539.4543835116574 1696.706982653035 535.3673448996326Q1691.7117132383382 531.2803062876078 1685.7798308083857 522.2831448986365L1685.7798308083857 522.2831448986365L1617.719285033139 416.8432251509132L1617.719285033139 524.9510728814861Q1617.719285033139 530.6558976107707 1622.82808329817 532.8980924048676L1622.82808329817 532.8980924048676Q1618.7410446861454 539.4543835116574 1612.2131357919393 539.4543835116574L1612.2131357919393 539.4543835116574Q1600.7751041207862 539.4543835116574 1600.7751041207862 525.1497483695706ZM1816.252862054761 454.33612797372416Q1806.9718785399546 443.60765161715904 1792.8659188859524 443.60765161715904Q1778.7599592319498 443.60765161715904 1770.9832329840692 453.3143683207179Q1763.2348889487726 463.02108502427683 1763.2348889487726 481.8101097545576L1763.2348889487726 481.8101097545576Q1763.2348889487726 506.1336659386218 1772.742930164247 517.0608177832714Q1782.2225891671378 528.0163518405046 1796.32854882114 528.0163518405046Q1810.4345084751421 528.0163518405046 1817.9841770223547 518.1961062866117Q1825.5622277821508 508.37586073271876 1825.5622277821508 489.5868360024381L1825.5622277821508 489.5868360024381Q1825.5622277821508 465.0646043302892 1816.252862054761 454.33612797372416ZM1760.0560811394198 446.04852189934047Q1774.2755696437562 431.97094445792175 1794.483705003212 431.97094445792175Q1814.7202225752517 431.97094445792175 1828.939711079588 446.1620507496745Q1843.1308173713405 460.3531570414273 1843.1308173713405 485.81200172883183Q1843.1308173713405 511.24246420365284 1828.939711079588 525.3484238576551Q1814.7202225752517 539.4543835116574 1794.483705003212 539.4543835116574Q1774.2755696437562 539.4543835116574 1760.0560811394198 525.3484238576551Q1745.8649748476669 511.24246420365284 1745.8649748476669 485.6984728784978Q1745.8649748476669 460.15448155334275 1760.0560811394198 446.04852189934047ZM1891.777929739469 446.87160606426215L1888.911326268535 446.87160606426215L1888.911326268535 511.66819739240543Q1888.911326268535 519.2178659396179 1891.8630763772198 522.4818203867211Q1894.843208698488 525.7457748338243 1901.5697930807787 525.7457748338243L1901.5697930807787 525.7457748338243Q1914.2566421056058 525.7457748338243 1925.495998288674 514.9321518395086L1925.495998288674 514.9321518395086Q1928.9586282238615 516.7769956574364 1928.9586282238615 520.8640342694613L1928.9586282238615 520.8640342694613Q1928.9586282238615 527.7892941398366 1919.9614668348904 533.6360299320388Q1910.9643054459189 539.4543835116574 1897.9084876575062 539.4543835116574L1897.9084876575062 539.4543835116574Q1871.7400876555143 539.4543835116574 1871.7400876555143 512.2642238566591L1871.7400876555143 512.2642238566591L1871.7400876555143 446.87160606426215Q1855.1932577193306 446.27557960000854 1855.1932577193306 438.8962043282971L1855.1932577193306 438.8962043282971Q1855.1932577193306 435.03622341694035 1857.6341280015117 432.9927041109279L1857.6341280015117 432.9927041109279Q1864.7864455725553 434.01446376393415 1868.6748086964958 434.01446376393415L1868.6748086964958 434.01446376393415L1871.7400876555143 434.01446376393415L1871.7400876555143 417.4392516151669Q1871.7400876555143 411.7344268858822 1866.6312893904833 409.2651743911172L1866.6312893904833 409.2651743911172Q1870.7183280025079 402.93594098499545 1877.2462368967144 402.93594098499545L1877.2462368967144 402.93594098499545Q1888.911326268535 402.93594098499545 1888.911326268535 417.2405761270823L1888.911326268535 417.2405761270823L1888.911326268535 434.01446376393415L1923.2254212819935 434.01446376393415Q1924.048505446915 435.4335743931094 1924.048505446915 437.4770936991218L1924.048505446915 437.4770936991218Q1924.048505446915 446.87160606426215 1891.777929739469 446.87160606426215L1891.777929739469 446.87160606426215Z " fill="#243665" transform="matrix(0.45361266562601243,0,0,0.45361266562601243,0,89.31759723041156)"/></g></svg>